<svg width="1875" height="638" viewBox="0 0 1875 638" fill="none" xmlns="http://www.w3.org/2000/svg">
<path d="M0 578V319V60C0 26.8629 26.8629 0 60 0H578C611.137 0 638 26.8629 638 60V578C638 611.137 611.137 638 578 638H60C26.8629 638 0 611.137 0 578Z" fill="#262525"/>
<path d="M417.003 184.811C451.166 185.127 459.236 185.54 465.312 187.266C469.323 188.396 475.619 190.499 479.289 191.921C482.972 193.355 490.3 197.037 495.574 200.1C500.861 203.174 509.55 209.786 514.886 214.806C520.233 219.813 526.82 227.202 529.519 231.213C532.229 235.224 535.912 241.786 537.698 245.797C539.497 249.807 541.939 256.917 543.118 261.596C544.589 267.393 545.233 274.37 545.16 283.473C545.087 292.66 544.273 299.879 542.571 306.563C541.198 311.911 537.515 321.476 534.38 327.832C529.677 337.36 526.857 341.213 518.265 349.83C512.334 355.773 504.179 362.445 499.342 365.313C494.663 368.084 486.46 372.046 481.112 374.137C475.765 376.227 467.561 378.768 462.882 379.776C455.663 381.344 441.467 381.587 284.227 381.174L273.435 404.034C267.504 416.601 253.564 445.902 242.443 469.14C231.335 492.377 221.891 510.972 221.466 510.462C221.04 509.951 207.161 484.101 190.633 453.013C174.116 421.924 151.134 378.718 139.576 357C128.018 335.27 113.398 307.378 107.078 295.018C98.4981 278.234 95.2411 270.529 94.208 264.635C93.4545 260.284 92.834 254 92.834 250.658C92.8461 247.316 93.6247 241.3 94.5605 237.289C95.5085 233.279 97.3432 227.53 98.6436 224.528C99.944 221.514 103.274 216.045 106.033 212.375C108.804 208.693 114.224 203.224 118.089 200.222C121.941 197.208 128.358 193.282 132.345 191.471C136.331 189.672 142.882 187.23 146.893 186.051C153.589 184.07 163.118 185.09 373.554 184.422H377.808C377.808 184.422 390.727 184.555 417.003 184.811ZM373.905 185.876L364.549 207.732C359.262 219.983 352.067 236.293 348.566 243.974C345.054 251.655 334.967 273.263 326.144 291.979C317.32 310.696 305.725 335.306 300.378 346.67C295.03 358.033 289.307 370.345 287.666 374.016L284.688 380.699C315.412 379.338 330.616 378.098 338.31 377.065C346.003 376.032 356.661 374.149 362.009 372.873C367.356 371.597 375.827 369.068 380.847 367.27C385.854 365.471 392.696 362.616 396.038 360.938C399.38 359.249 405.396 355.663 409.406 352.953C413.417 350.243 419.64 345.248 423.226 341.869C426.811 338.49 432.085 332.45 434.929 328.439C437.772 324.429 441.54 318.28 443.29 314.768C445.04 311.255 447.532 304.424 448.82 299.575C450.109 294.726 451.519 287.483 451.956 283.473C452.381 279.462 452.113 271.537 451.348 265.85C450.582 260.162 448.626 251.691 446.985 247.012C445.357 242.333 441.905 234.943 439.304 230.604C436.715 226.266 431.052 218.876 426.737 214.197C422.423 209.518 415.119 203.138 410.501 200.026C405.895 196.903 397.739 192.589 392.392 190.438C387.044 188.299 381.541 185.876 378.269 185.876H373.905ZM359.578 185.855C353.562 186.317 343.45 187.569 337.094 188.663C330.75 189.745 320.358 191.945 314.002 193.549C307.658 195.141 296.72 198.435 289.695 200.865C282.683 203.284 269.824 208.692 261.135 212.86C252.445 217.029 240.693 223.337 235.005 226.886C229.329 230.422 221.393 235.843 217.383 238.942C213.372 242.029 206.068 248.397 201.146 253.076C196.223 257.755 189.09 266.238 185.298 271.914C181.506 277.602 177.337 285.526 176.024 289.537C174.481 294.24 173.643 300.074 173.667 305.943C173.703 312.798 174.347 316.274 176.268 319.92C177.665 322.594 180.655 326.581 182.903 328.78C185.164 330.98 189.868 333.849 193.38 335.161C197.451 336.68 202.738 337.542 207.964 337.53C212.473 337.518 219.448 336.644 223.459 335.599C227.47 334.566 235.127 331.673 240.475 329.193C245.822 326.702 254.852 321.646 260.527 317.964C266.215 314.269 275.78 307.135 281.796 302.104C287.812 297.072 298.883 286.583 306.406 278.793C313.929 271.003 324.868 258.205 330.726 250.342C336.584 242.491 346.087 228.684 351.848 219.654C357.608 210.637 364.305 199.565 366.724 195.044C369.142 190.535 371.166 186.386 370.996 185.876C370.63 185.876 365.541 185.876 359.578 185.855Z" fill="white"/>
<path d="M789.789 303C786.591 303 784.287 301.307 782.876 297.921L709.656 131.729C708.433 129.001 708.433 126.744 709.656 124.957C710.972 123.17 712.759 122.041 715.017 121.571C718.873 120.631 721.553 122.041 723.058 125.804L793.598 285.788H788.378L858.495 125.804C860 122.041 862.727 120.631 866.678 121.571C869.123 122.041 870.91 123.17 872.039 124.957C873.167 126.744 873.167 129.001 872.039 131.729L798.536 297.921C797.125 301.307 794.727 303 791.341 303H789.789ZM910.525 303C908.174 303 906.34 302.342 905.023 301.025C903.706 299.708 903.048 297.874 903.048 295.523V128.484C903.048 126.133 903.706 124.299 905.023 122.982C906.34 121.665 908.174 121.007 910.525 121.007C912.782 121.007 914.569 121.665 915.886 122.982C917.203 124.299 917.861 126.133 917.861 128.484V295.523C917.861 297.874 917.203 299.708 915.886 301.025C914.569 302.342 912.782 303 910.525 303ZM1028.96 303C1025.77 303 1023.46 301.307 1022.05 297.921L948.83 131.729C947.608 129.001 947.608 126.744 948.83 124.957C950.147 123.17 951.934 122.041 954.191 121.571C958.048 120.631 960.728 122.041 962.233 125.804L1032.77 285.788H1027.55L1097.67 125.804C1099.17 122.041 1101.9 120.631 1105.85 121.571C1108.3 122.041 1110.08 123.17 1111.21 124.957C1112.34 126.744 1112.34 129.001 1111.21 131.729L1037.71 297.921C1036.3 301.307 1033.9 303 1030.52 303H1028.96ZM1149.7 303C1144.71 303 1142.22 300.508 1142.22 295.523V128.625C1142.22 123.64 1144.71 121.148 1149.7 121.148H1255.37C1260.35 121.148 1262.85 123.64 1262.85 128.625C1262.85 133.516 1260.35 135.961 1255.37 135.961H1157.04V203.539H1222.07C1227.06 203.539 1229.55 205.984 1229.55 210.875C1229.55 215.86 1227.06 218.352 1222.07 218.352H1157.04V288.187H1255.37C1260.35 288.187 1262.85 290.632 1262.85 295.523C1262.85 300.508 1260.35 303 1255.37 303H1149.7ZM1423.41 303.282C1421.34 304.505 1419.46 304.928 1417.76 304.552C1416.07 304.176 1414.57 303 1413.25 301.025L1366.98 227.381H1315.2V295.523C1315.2 300.508 1312.75 303 1307.86 303C1302.88 303 1300.39 300.508 1300.39 295.523V128.625C1300.39 123.64 1302.88 121.148 1307.86 121.148H1373.89C1389.97 121.148 1402.1 125.286 1410.29 133.563C1418.56 141.84 1422.7 154.02 1422.7 170.103V178.567C1422.7 192.769 1419.46 203.915 1412.97 212.003C1406.48 220.092 1396.89 225.03 1384.19 226.817L1425.81 293.124C1428.44 297.451 1427.64 300.837 1423.41 303.282ZM1315.2 212.568H1373.89C1385.74 212.568 1394.35 209.887 1399.71 204.526C1405.16 199.071 1407.89 190.418 1407.89 178.567V170.103C1407.89 158.158 1405.16 149.505 1399.71 144.144C1394.35 138.689 1385.74 135.961 1373.89 135.961H1315.2V212.568ZM1545.94 303C1540.95 303 1538.46 300.508 1538.46 295.523V128.625C1538.46 123.64 1540.95 121.148 1545.94 121.148H1613.94C1637.36 121.148 1654.38 126.509 1665.01 137.231C1675.73 147.953 1681.09 165.024 1681.09 188.443V235.705C1681.09 259.124 1675.73 276.195 1665.01 286.917C1654.38 297.639 1637.36 303 1613.94 303H1545.94ZM1553.27 288.187H1613.94C1626.73 288.187 1636.93 286.494 1644.55 283.108C1652.26 279.722 1657.81 274.22 1661.2 266.601C1664.58 258.889 1666.28 248.59 1666.28 235.705V188.443C1666.28 175.652 1664.58 165.447 1661.2 157.829C1657.81 150.116 1652.26 144.567 1644.55 141.181C1636.93 137.701 1626.73 135.961 1613.94 135.961H1553.27V288.187ZM1712.96 302.295C1708.44 300.319 1707.08 297.028 1708.87 292.419L1778.84 126.932C1780.35 123.076 1783.12 121.148 1787.17 121.148H1788.01C1791.87 121.242 1794.6 123.17 1796.2 126.932L1866.17 292.419C1868.05 297.028 1866.74 300.319 1862.22 302.295C1857.61 304.176 1854.42 302.859 1852.63 298.344L1833.86 253.904H1741.46L1722.69 298.344C1720.81 302.859 1717.57 304.176 1712.96 302.295ZM1747.52 239.091H1827.66L1787.59 144.567L1747.52 239.091Z" fill="white"/>
<path d="M738.859 544.398C733.874 544.398 731.382 541.906 731.382 536.921V370.024C731.382 365.039 733.874 362.547 738.859 362.547H804.884C820.967 362.547 833.1 366.685 841.283 374.962C849.559 383.239 853.698 395.418 853.698 411.502V419.966C853.698 435.955 849.559 448.088 841.283 456.365C833.1 464.641 820.967 468.78 804.884 468.78H746.195V536.921C746.195 541.906 743.75 544.398 738.859 544.398ZM746.195 453.966H804.884C816.735 453.966 825.341 451.286 830.702 445.925C836.157 440.47 838.884 431.817 838.884 419.966V411.502C838.884 399.557 836.157 390.904 830.702 385.543C825.341 380.088 816.735 377.36 804.884 377.36H746.195V453.966ZM1012.57 544.68C1010.5 545.903 1008.62 546.326 1006.92 545.95C1005.23 545.574 1003.73 544.398 1002.41 542.423L956.135 468.78H904.358V536.921C904.358 541.906 901.913 544.398 897.022 544.398C892.037 544.398 889.545 541.906 889.545 536.921V370.024C889.545 365.039 892.037 362.547 897.022 362.547H963.047C979.131 362.547 991.263 366.685 999.446 374.962C1007.72 383.239 1011.86 395.418 1011.86 411.502V419.966C1011.86 434.168 1008.62 445.314 1002.13 453.402C995.637 461.491 986.043 466.428 973.346 468.215L1014.96 534.523C1017.6 538.849 1016.8 542.235 1012.57 544.68ZM904.358 453.966H963.047C974.898 453.966 983.504 451.286 988.865 445.925C994.32 440.47 997.048 431.817 997.048 419.966V411.502C997.048 399.557 994.32 390.904 988.865 385.543C983.504 380.088 974.898 377.36 963.047 377.36H904.358V453.966ZM1042.55 543.693C1038.04 541.718 1036.67 538.426 1038.46 533.817L1108.44 368.331C1109.94 364.475 1112.72 362.547 1116.76 362.547H1117.61C1121.46 362.641 1124.19 364.569 1125.79 368.331L1195.76 533.817C1197.65 538.426 1196.33 541.718 1191.81 543.693C1187.21 545.574 1184.01 544.257 1182.22 539.743L1163.46 495.303H1071.05L1052.29 539.743C1050.41 544.257 1047.16 545.574 1042.55 543.693ZM1077.12 480.489H1157.25L1117.18 385.966L1077.12 480.489ZM1261.28 544.539C1259.02 544.539 1257.18 543.881 1255.77 542.564C1254.46 541.248 1253.8 539.461 1253.8 537.203V377.219H1193.84C1191.58 377.219 1189.75 376.561 1188.34 375.244C1187.02 373.927 1186.36 372.14 1186.36 369.883C1186.36 367.626 1187.02 365.839 1188.34 364.522C1189.75 363.111 1191.58 362.406 1193.84 362.406H1328.71C1330.97 362.406 1332.76 363.111 1334.07 364.522C1335.39 365.839 1336.05 367.626 1336.05 369.883C1336.05 372.14 1335.39 373.927 1334.07 375.244C1332.76 376.561 1330.97 377.219 1328.71 377.219H1268.61V537.203C1268.61 539.366 1267.91 541.153 1266.5 542.564C1265.18 543.881 1263.44 544.539 1261.28 544.539ZM1330.77 543.693C1326.26 541.718 1324.89 538.426 1326.68 533.817L1396.66 368.331C1398.16 364.475 1400.94 362.547 1404.98 362.547H1405.83C1409.68 362.641 1412.41 364.569 1414.01 368.331L1483.99 533.817C1485.87 538.426 1484.55 541.718 1480.04 543.693C1475.43 545.574 1472.23 544.257 1470.44 539.743L1451.68 495.303H1359.27L1340.51 539.743C1338.63 544.257 1335.38 545.574 1330.77 543.693ZM1365.34 480.489H1445.47L1405.4 385.966L1365.34 480.489Z" fill="white"/>
</svg>
